<svg xmlns="http://www.w3.org/2000/svg" width="96" height="97" fill="none"><g clip-path="url(#a)"><path fill="#F168AA" d="M17.883 2.542H15.84v2.043h2.043zM19.925 4.585h-2.042v2.043h2.042zM21.968 6.628h-2.043V8.67h2.043zM24.01 8.67h-2.042v2.043h2.042z"/><path fill="#5656E9" fill-rule="evenodd" d="M66.904 33.18h4.085v-2.042h-4.085z" clip-rule="evenodd"/><path fill="#5656E9" d="M73.032 33.18h-2.043v2.044h2.043z"/><path fill="#C01969" fill-rule="evenodd" d="M24.01 37.266h-2.042v2.043h2.042zm-4.085-16.34v16.34h2.043v-16.34zm0-2.043h-2.042v2.043h2.042zM15.84 4.585v14.298h2.043V4.585z" clip-rule="evenodd"/><path fill="#F168AA" d="M64.861 37.266H62.82v2.042h2.042z"/><path fill="#5656E9" d="M73.032 37.266h-2.043v2.042h2.043z"/><path fill="#F168AA" d="M58.734 39.309H56.69v2.042h2.043zM66.904 39.309h-2.042v2.042h2.042z"/><path fill="#EB2682" fill-rule="evenodd" d="M19.925 8.67V6.628h-2.042v12.255h2.042v2.043h2.043v16.34h2.043V10.713h-2.043V8.67zm44.937 40.851v-4.085h2.042v-4.085h-2.042V39.31h-2.043v-2.043h-2.043v4.085h-4.085V39.31H54.65v2.042h-2.043v6.128h2.043v2.042h2.042v2.043h4.085v2.042h2.043v-4.085z" clip-rule="evenodd"/><path fill="#1D1DA1" fill-rule="evenodd" d="M60.776 57.692h4.085v-2.043h4.085v-2.043h4.086v-4.085h2.042V27.053h-6.127v2.043H64.86v2.042h-4.085v2.043h-4.085v2.042h-4.085v2.043h-4.085v2.043h-4.085v4.085h-2.043v22.468h6.128v-2.043h4.085v-2.042h4.085v-2.043h4.085zM70.99 37.266v2.043h2.043v-2.043zm-4.085-6.128v2.043h4.085v2.042h2.043v-2.042h-2.043v-2.043zm-6.128 10.213h-2.042V39.31h-4.085v2.042h-2.043v6.128h2.043v2.042h2.042v2.043h4.085v2.042h2.043v-4.085h2.042v-4.085h2.043V39.31H64.86v-2.043h-4.085z" clip-rule="evenodd"/><path fill="#EED3B1" fill-rule="evenodd" d="M56.691 90.372H54.65v2.043h2.042zm4.085-2.042h-2.042v2.042h2.042zm4.085-2.043H62.82v2.043h2.042zm-12.255 0h-2.043v2.043h2.043zm16.34-2.042h-2.042v2.042h2.043zm-12.255 0H54.65v2.042h2.042zm16.34-2.043H70.99v2.043h2.043zm-12.255 0h-2.042v2.043h2.042zm-12.255 0h-2.043v2.043h2.043zm28.596-2.042h-2.043v2.042h2.043zm-12.256 0H62.82v2.042h2.042zm-12.255 0h-2.043v2.042h2.043zm28.596-2.043h-2.043v2.043h2.043zm-12.255 0h-2.043v2.043h2.043zm-12.256 0H54.65v2.043h2.042zm16.34-2.042H70.99v2.042h2.043zm-12.255 0h-2.042v2.042h2.042zm4.085-2.043H62.82v2.043h2.042zm12.256 0h-2.043v2.043h2.043zm-2.043-2.042h-2.042v2.042h2.042zm-6.127 0h-2.043v2.042h2.043zm4.085-2.043h-2.043v2.043h2.043zm-2.043-2.043h-2.043v2.043h2.043zm-18.383 0h-4.085v2.043h4.085zm16.34-2.042h-2.042v2.042h2.043zm-12.255 0h-4.085v2.042h4.085zm16.34 0H70.99v2.042h2.043zm-12.255-2.043h-4.085v2.043h4.085zm10.213 0h-2.043v2.043h2.043zm-6.128-2.042h-4.085v2.042h4.085zm4.085-2.043h-4.085v2.043h4.085zm4.086-2.042h-4.085v2.042h4.085zm4.085 0v-4.086h-2.043v2.043h-2.042v2.043zM52.607 33.18H48.52v2.043h4.085zm-16.341-2.043h-2.043v2.043h2.043zm4.085 0h-2.043v2.043h2.043zm16.34 0h-4.085v2.043h4.085zm4.085-2.042h-4.085v2.042h4.085zm-26.553 0h-2.042v2.042h2.042zm4.085 0h-2.042v2.042h2.042zm6.128 2.042v-2.042h4.085v-2.043h4.085v-2.042h4.085v-2.043h4.085v-2.042h4.085v-2.043h4.085V16.84h4.086v-2.042h-4.085v-2.043H64.86v-2.042h-4.085V8.67h-4.085V6.628h-4.085V4.585h-4.085v2.043h-2.043V8.67h-2.042v2.043h-2.043v2.042h-2.042v2.043h-2.043v2.042h-2.042v2.043h-2.043v2.043h2.043v-2.043h2.042v2.043h-2.042v2.042h-2.043v2.043h2.043v-2.043h2.042v2.043h-2.042v2.042h-2.043v2.043h2.043v-2.043h2.042v2.043h2.043v2.042zM32.18 27.053h-2.043v2.043h2.043zm32.68 0h-4.085v2.043h4.085zm-30.638-2.042h-2.042v2.042h2.042zm-4.085 0h-2.043v2.042h2.043zm38.808 0h-4.085v2.042h4.085zm0 0h6.128v2.042h2.043v-6.127h-4.085v2.042h-4.085zm-36.765-2.043h-2.043v2.043h2.043zm2.042-2.042h-2.042v2.042h2.042zm-4.085 0h-2.043v2.042h2.043zm2.043-2.043h-2.043v2.043h2.043zm-2.043-2.043h-2.043v2.043h2.043zm4.085 0h-2.042v2.043h2.042zm-2.042-2.042h-2.043v2.042h2.043zm4.085 0h-2.043v2.042h2.043zm-2.043-2.043h-2.042v2.043h2.042zm4.085 0h-2.042v2.043h2.042zm2.043-2.042h-2.043v2.042h2.043zm-4.085 0h-2.043v2.042h2.043zm6.127-2.043h-2.042v2.043h2.042zm2.043-2.042h-2.043V8.67h2.043z" clip-rule="evenodd"/><path fill="#F9EFE4" fill-rule="evenodd" d="M58.734 90.372H56.69v2.043h2.043zm4.085-2.042h-2.043v2.042h2.043zm4.085-2.043h-2.042v2.043h2.042zm-12.255 0h-2.043v2.043h2.043zm16.34-2.042h-2.042v2.042h2.042zm-12.255 0H56.69v2.042h2.043zm16.34-2.043h-2.042v2.043h2.042zm-12.255 0h-2.043v2.043h2.043zm-12.255 0H48.52v2.043h2.043zm28.595-2.042h-2.042v2.042h2.042zm-12.255 0h-2.042v2.042h2.042zm-12.255 0h-2.043v2.042h2.043zm28.596-2.043h-2.043v2.043h2.043zm-12.256 0h-2.042v2.043h2.042zm-12.255 0H56.69v2.043h2.043zm16.34-2.042h-2.042v2.042h2.042zm-12.255 0h-2.043v2.042h2.043zm16.34-2.043h-2.042v2.043h2.042zm-12.255 0h-2.042v2.043h2.042zm4.085-2.042h-2.042v2.042h2.042zm4.085-2.043h-2.042v2.043h2.042zm0-2.043v-6.127h-2.042v6.127zM79.16 55.65V16.841h-2.042v38.808zM48.521 29.096h-4.085v2.042h4.085zm4.085-2.043h-4.085v2.043h4.085zm4.085-2.042h-4.085v2.042h4.085zm4.085-2.043h-4.085v2.043h4.085zm4.086-2.042h-4.085v2.042h4.085zm4.085-2.043h-4.085v2.043h4.085zm0 0h4.085V16.84h-4.085zm8.17-4.085h-4.085v2.042h4.085zm-4.085-2.043h-4.085v2.043h4.085zm-4.085-2.042h-4.085v2.042h4.085zM64.862 8.67h-4.085v2.043h4.085zm-4.085-2.042H56.69V8.67h4.085zM56.69 4.585h-4.085v2.043h4.085z" clip-rule="evenodd"/><path fill="#DCA460" fill-rule="evenodd" d="M58.734 92.415H56.69v2.042h2.043zm-4.085 0h-2.043v2.042h2.043zm-32.681-2.043h4.085v2.043h4.085v2.042h2.043v-16.34h4.085V37.266h-2.043v-2.043h-4.085v-2.042h-4.085v6.127H24.01v2.043h-2.042v-2.043h-2.043v-2.042h-2.042V27.053h-4.085v-2.042H9.712v59.234h4.085v2.042h4.086v2.043h4.085zm40.85 0h-2.042v2.043h2.043zm-16.34-4.085v-2.042h-2.042v6.127h4.085v2.043h4.085v-2.043h-2.043V88.33h-2.042v-2.043zm20.426 2.043H64.86v2.042h2.043zm-12.255 0h-2.043v2.042h2.043zm16.34-2.043h-2.043v2.043h2.043zm-12.255 0H56.69v2.043h2.043zm16.34-2.042h-2.042v2.042h2.042zm-12.255 0h-2.043v2.042h2.043zm-12.256 0h-2.042v2.042h2.042zm-36.765-4.086h4.085v2.043h4.085v2.043h2.042v2.042h2.043v-4.085h-4.085V80.16h-4.085v-2.042h-4.085zm65.361 2.043h-2.042v2.043h2.042zm-12.255 0H64.86v2.043h2.043zm-12.255 0h-2.043v2.043h2.043zm4.085-2.043H56.69v2.043h2.043zm24.51 0h-2.042v2.043h2.042zm-12.255 0h-2.043v2.043h2.043zm-28.596-2.042v2.042h2.043v-2.042zm20.426 0h-2.043v2.042h2.043zm12.255 0h-2.042v2.042h2.042zm-61.276-6.128v2.043h4.085v2.042h4.085v2.043h2.042v2.042h2.043v-4.085h-4.085v-2.042h-4.085v-2.043zm32.68 4.085v2.043h2.043v-2.043zm20.426 0H64.86v2.043h2.043zm12.255 0h-2.042v2.043h2.042zm-20.425-2.042h-4.085v2.042h4.085zm12.255 0h-2.043v2.042h2.043zm-8.17-2.043h-4.085v2.043h4.085zm-49.021-6.127v2.042h4.085v2.043h4.085v2.042h2.042v2.043h2.043v-4.085h-4.085v-2.043h-4.085v-2.042zm53.106 4.085h-4.085v2.042h4.085zm2.042-2.043h-2.042v2.043h2.042zm2.043-2.042h-2.043v2.042h2.043zm-18.383 0h-4.085v2.042h4.085zm4.085-2.043h-4.085v2.043h4.085zm4.085-2.043h-4.085v2.043h4.085zm4.085-2.042h-4.085v2.042h4.085zm10.213 0h-2.042v2.042h2.042zm-6.128-2.043h-4.085v2.043h4.085zm4.086-2.042h-4.086v2.042h4.086zm2.042-2.043h-2.042v2.043h2.042zm2.043 0v-4.085h-2.043v4.085zM36.266 33.181h-2.043v2.042h6.128v-2.042h-2.043v-2.043h-2.042zm16.34-2.043h-4.085v2.043h4.085zm-8.17 0H40.35v2.043h4.085zM40.35 8.67h2.042V6.628h2.043V8.67h2.042V6.628h2.043V4.585h4.085V2.542h-6.128v2.043h-4.085v2.043h-4.085V8.67h-4.085v2.043h-4.085v2.042h-4.085v18.383h4.085v2.043h4.085v-2.043h-2.042v-2.042h-2.043v-2.043h-2.043v-2.042h2.043v-2.043h-2.043v-2.043h2.043v-2.042h-2.043V16.84h2.043v-2.042h2.043v-2.043h2.042v-2.042h2.043v2.042h2.042v-2.042h2.043zm16.34 20.426h-4.085v2.042h4.085zm-16.34 0h-2.043v2.042h2.043zm-4.085 0h-2.043v2.042h2.043zm2.042-2.043h-2.042v2.043h2.042zm-4.085 0h-2.042v2.043h2.042zm26.553 0h-4.085v2.043h4.085zm-24.51-2.042h-2.043v2.042h2.043zm-4.085 0h-2.043v2.042h2.043zm32.68 0h-4.085v2.042h4.085zm-26.553-2.043h-2.042v2.043h2.042zm-24.51-4.085v2.043H9.712v2.042h4.085v2.043h4.086v-4.085H15.84v-2.043zm55.148 4.085h-4.085v2.043h4.085zm-34.723 0h-2.042v2.043h2.042zm-2.042-2.043h-2.043v2.043h2.043zm4.085 0h-2.043v2.043h2.043zm36.766 0h-4.086v2.043h4.086zm4.085-2.042h-4.085v2.043h4.085zm-38.809 0h-2.042v2.043h2.042zm-4.085 0h-2.042v2.043h2.042zm2.043-2.043h-2.043v2.043h2.043zm-4.085 0h-2.043v2.043h2.043zm2.042-2.042h-2.042v2.042h2.042zm4.085 0h-2.042v2.042h2.042zm-2.042-2.043h-2.043v2.043h2.043zm4.085 0h-2.043v2.043h2.043zm2.042-2.042h-2.042v2.042h2.042zm2.043-2.043h-2.043v2.043h2.043zm-8.17 85.787v-2.042h4.085v-2.043h2.042v-8.17h4.085V80.16h4.085v-2.042h4.086v-2.043h-4.086v-2.042h4.086v-2.043h4.085v-2.042h4.085v-2.043h4.085v-2.042h2.042v-2.043h2.043v2.043h2.043v-4.085h-4.086v2.042h-4.085v2.043h-4.085v2.042h-4.085v2.043h-4.085v2.042h-4.085v2.043h-4.085v2.042H40.35v2.043h-4.085v2.042h-2.043v14.298zm6.127-51.063v-4.086h2.043v-2.042h4.085V33.18h-4.085v2.042H40.35v2.043h-2.043v38.808h2.043v-2.042h4.085v-2.043h4.085v-4.085h-6.128v-2.042h-2.042V43.394z" clip-rule="evenodd"/><path fill="#000" fill-rule="evenodd" d="M30.138 96.5h6.128v-2.043h-2.043V80.16h2.043v-2.043H32.18v16.34h-2.043zm26.553-2.043v-2.042H54.65v2.042h-2.043V96.5h6.128v-2.043zm-16.34-2.042h-4.085v2.042h4.085zm-10.213 0h-4.085v2.042h4.085zm22.468 0h-4.085v2.042h4.085zm8.17 0v-2.043h-2.042v4.085h4.085v-2.042zm-34.723-2.043h-4.085v2.043h4.085zm38.809 0V88.33h-2.043v4.085h4.085v-2.043zm-10.213 0h-2.043v2.043h2.043zm-8.17-8.17h-4.085v8.17H40.35v2.043h8.17v-2.043h-4.085v-6.127h2.043zm22.468 6.128v-2.043h-2.043v4.085h4.085V88.33zm-46.979 0h-4.085v2.042h4.085zm34.723 0v-2.043H54.65v4.085h4.085V88.33zm-4.085 0h-2.042v2.042h2.042zm-2.042-2.043H48.52v2.043h2.043zm10.213 0v-2.042h-2.043v4.085h4.085v-2.043zm12.255 0v-2.042h-2.043v4.085h4.085v-2.043zm-55.15 0h-4.084v2.043h4.085zm30.64-2.042h-2.043v2.042h2.042zm-22.469 2.042v-4.085h-4.085v2.043h2.043v2.042zm26.553-2.042v-2.043h-2.042v4.085h4.085v-2.042zm12.256 0v-2.043h-2.043v4.085h4.085v-2.042zm12.255 0v-2.043h-2.043v4.085h4.085v-2.042zm-63.32 0H9.714v2.042h4.085zm67.405-2.043V80.16H79.16v4.085h4.086v-2.043zm-12.255 0V80.16h-2.043v4.085h4.085v-2.043zm-12.256 0V80.16H54.65v4.085h4.085v-2.043zM9.713 22.968v-2.043H7.67v63.32h2.043V25.01h4.085v-2.043zM73.032 80.16v-2.043h-2.043v4.085h4.085V80.16zm-22.468 0h-4.085v2.042h4.085zm34.723 0v-2.043h-2.042v4.085h4.085V80.16zm-63.319 0h-4.085v2.042h4.085zm38.809 0v-2.043h-2.043v4.085h4.085V80.16zm-16.34-2.043h-2.043v2.043h2.042zm-26.554 0h-4.085v2.043h4.085zm59.234 0v-2.043h-2.043v4.086h4.085v-2.043zM26.053 80.16v-4.085h-4.085v2.042h2.043v2.043zm38.809-2.043v-2.043h-2.043v4.086h4.085v-2.043zm-10.213 0h-4.085v2.043h4.085zM40.35 35.223h-6.128v2.043h2.043v40.851h4.085v-2.043h-2.042V37.267h2.042zm28.596 40.852v-2.043h-2.043v4.085h4.085v-2.043zm12.255 0v-2.043H79.16v4.085h4.086v-2.043zm-32.68 0h-2.043v2.042h2.042zm10.212 0h-4.085v2.042h4.085zm14.298-2.043v-2.043h-2.043v4.085h4.085v-2.042zm-18.383 0h-4.085v2.043h4.085zm8.17 0h-4.085v2.043h4.085zm-18.383 0h-4.085v2.043h4.085zm-22.468 0h-4.085v2.043h4.085zm44.936-2.043h4.085v-2.042h4.085v4.085h4.085v-2.043h-2.042V57.691h-4.085v2.043h-4.085v2.043h4.085v-2.043h2.042v8.17H70.99v2.043h-4.085zm-40.85 2.043v-4.085h-4.086v2.042h2.043v2.043zm32.68-2.043h-4.085v2.043h4.085zm8.17 0H62.82v2.043h4.085zm-18.383 0h-4.085v2.043h4.085zm-30.638 0h-4.085v2.043h4.085zm44.936-2.042h-4.085v2.042h4.085zm-10.213 0h-4.085v2.042h4.085zm4.085-2.043h-4.085v2.043h4.085zm10.213 0H62.82v2.043h4.085zm-44.936 0h-4.085v2.043h4.085zm38.809-2.042H56.69v2.042h4.086zm-42.894 0h-4.085v2.042h4.085zm30.638 0h-6.127v2.042h6.127zm16.34-2.043h-4.084v2.043h4.085zm-22.467 2.043V43.394H40.35v22.468zm10.212-2.043h-4.085v2.043h4.085zm4.085-2.042h-4.085v2.042h4.085zm12.256 0h-4.085v2.042h4.085zm-8.17-2.043H56.69v2.043h4.086zm4.085-2.043h-4.085v2.043h4.085zm4.085-2.042h-4.085v2.042h4.085zm10.212 0h-2.042v2.042h2.042zm-6.127-36.766h4.085V16.84h2.042V55.65h2.043V14.798h-4.085v2.042h-4.085zm0 34.723h-4.085v2.043h4.085zm2.042 0v-4.085h-2.042v4.085zm2.043-4.085V27.053h-2.043v22.468zm-32.68-6.127v-4.085h-2.043v4.085zM24.01 39.309h-2.043v2.042h2.043zm24.51-2.043h-4.085v2.043h4.085zm-26.553 0h-2.043v2.043h2.043zm4.085-26.553V8.67h-2.042V39.31h2.042V33.18h4.085v-2.043h-4.085V12.755h4.085v-2.042zm26.553 24.51h-4.085v2.043h4.085zm-32.68 2.043v-16.34h-2.043v4.085h-4.085v2.042h4.085v10.213zm24.51-4.085h-4.085v2.042h4.085zm12.255 0h-4.085v2.042h4.085zm-22.468 0h-4.085v2.042h4.085zm26.554-2.043H56.69v2.043h4.086zm-12.256 0h-4.085v2.043h4.085zm4.085-2.042h-4.085v2.042h4.085zm12.256 0h-4.085v2.042h4.085zm4.085-2.043h-4.085v2.043h4.085zm-12.256 0h-4.085v2.043h4.085zm4.086-2.042H56.69v2.042h4.086zm14.297 0h-6.127v2.042h6.127zm-10.212-2.043h-4.085v2.043h4.085zm4.085-2.043h-4.085v2.043h4.085zm-55.15-2.042H9.714v2.043h4.085zm4.086 0H15.84v2.043h2.043zm55.149 0h-4.085v2.043h4.085zm-57.192 0V2.543h-2.042v16.34zm61.277-6.128h-4.085v2.043h4.085zm-4.085-2.042h-4.085v2.042h4.085zM68.947 8.67h-4.085v2.043h4.085zm-34.724 0h-4.085v2.043h4.085zm30.639-2.042h-4.085V8.67h4.085zm-26.553 0h-4.086V8.67h4.086zm-14.298 0h-2.043V8.67h2.043zm36.766-2.043H56.69v2.043h4.086zm-18.383 0h-4.085v2.043h4.085zm-20.426 0h-2.043v2.043h2.043zm-2.043-2.042h-2.042v2.042h2.043zm26.554 0h-4.085v2.042h4.085zm10.212 0h-4.085v2.042h4.085zM17.883.5H15.84v2.043h2.043zm34.723 0H46.48v2.043h6.127z" clip-rule="evenodd"/></g><defs><clipPath id="a"><path fill="#fff" d="M7.67.5h79.66v96H7.67z"/></clipPath></defs></svg>