<svg xmlns="http://www.w3.org/2000/svg" width="96" height="96" fill="none"><g fill-rule="evenodd" clip-path="url(#a)" clip-rule="evenodd"><path fill="#fff" d="M71.622 38.865h-2.055v2.054h2.055zm-2.055-2.054h2.055v-2.054h2.053v-2.054h2.055v-2.054h2.054v-6.162H71.62v-2.054h-2.054v-8.217h-41.08V40.92h39.026v-2.054h2.054zm4.109 0H71.62v2.054h2.055zm-41.082 2.054H65.46v-2.054H32.594zm43.136-4.108h-2.055v2.054h2.055zm2.054-2.054H75.73v2.054h2.054zm-45.19 0H65.46v-2.054H32.594zm0-6.162H65.46v-2.054H32.594zm43.136-8.217V16.27h-2.055v4.108h4.109v-2.054zm-43.136 0v2.054h10.27v-2.054z"/><path fill="#E68C4F" d="M65.46 8.054H22.323v34.919h2.054V10.108H65.46zm4.108 2.054h-2.055v2.054h2.054z"/><path fill="#D26218" d="M65.46 10.108H24.377v32.865h2.054v-30.81H65.46zm6.161 0h-2.054v2.054h2.054zm-2.054-2.054h-2.054v2.054h2.054z"/><path fill="#E0D9D0" d="M28.486 42.973h51.352v-20.54h-8.216v2.054h6.162v6.162H75.73v2.054h-2.055v2.054h2.055v-2.054h2.054v2.054H75.73v2.054h-2.055v2.054h-2.053v2.054h-2.055v-2.054h-2.054v2.054H28.486zm43.135-6.162h-2.054v2.054h2.055zm2.055-2.054H71.62v2.054h2.055zM71.62 22.433v-8.217h-2.054v8.217zm8.217-4.109h-2.054v2.054h2.054zm-2.054-2.054H75.73v2.054h2.054zm-2.054-2.054h-2.055v2.054h2.055z"/><path fill="#EED3B1" d="M63.405 84.054h-2.054v2.054h2.054zm-4.108 0h-2.054v2.054h2.054zM61.351 82h-2.054v2.054h2.054zm4.108 0h-2.054v2.054h2.054zm2.054-2.054H65.46V82h2.054zm-4.108 0h-2.054V82h2.054zm2.054-2.054h-2.054v2.054h2.054zm4.108 0h-2.054v2.054h2.054zm-2.054-2.054H65.46v2.054h2.054zm4.108 0h-2.053v2.054h2.053zm-2.053-2.054h-2.055v2.054h2.054zm4.108 0H71.62v2.054h2.055zm2.054-2.054h-2.054v2.054h2.054zm-4.109 0h-2.053v2.054h2.053zm6.163-2.054H75.73v2.054h2.054zm-4.108 0H71.62v2.054h2.055zm6.162-2.054h-2.054v2.054h2.054zm-4.108 0h-2.054v2.054h2.054zm2.054-2.054H75.73v2.054h2.054zm4.108 0h-2.054v2.054h2.054zm-2.054-2.054h-2.054v2.054h2.054zm2.054-2.054h-2.054v2.054h2.054zM20.27 38.865h-4.108v2.054h4.108zm59.568 20.54h2.054V45.028H12.054v41.081h43.135v-2.054h2.054V82h2.054v-2.054h2.054v-2.054h2.054v-2.054h2.054v-2.054h2.054V71.73h2.054v-2.054h2.055v-2.054h2.054v-2.054h2.054v-2.054h2.054V61.46h2.054z"/><path fill="#DCA460" d="M12.054 88.162h71.892V45.027h-2.054v14.378h-2.054v2.054h-2.054v2.054h2.054V61.46h2.054v2.053h-2.054v2.055h-2.054v2.054h2.054v-2.054h2.054v2.054h-2.054v2.054h-2.054v2.054H75.73v2.054h-2.054v2.054H71.62v2.054h-2.053v2.054h-2.055V82H65.46v2.054h-2.054v2.054h-2.054v-2.054h-2.054v2.054h-2.054v-2.054H55.19v2.054H12.054zM63.405 82h-2.054v2.054h2.054zm-4.108 0h-2.054v2.054h2.054zm2.054-2.054h-2.054V82h2.054zm4.108 0h-2.054V82h2.054zm2.054-2.054H65.46v2.054h2.054zm-4.108 0h-2.054v2.054h2.054zm2.054-2.054h-2.054v2.054h2.054zm4.108 0h-2.054v2.054h2.054zm-2.054-2.054H65.46v2.054h2.054zm4.108 0h-2.053v2.054h2.053zm-2.053-2.054h-2.055v2.054h2.054zm4.108 0H71.62v2.054h2.055zm-2.055-2.054h-2.053v2.054h2.053zm4.109 0h-2.054v2.054h2.054zm2.054-2.054H75.73v2.054h2.054zm-4.108 0H71.62v2.054h2.055zm2.054-2.054h-2.054v2.054h2.054zm2.054-2.054H75.73v2.054h2.054zM20.27 40.919h-6.162v2.054h6.162z"/><path fill="#000" d="M83.946 88.162H12.054v2.054h71.892zm2.054 0V45.027h-2.054v43.135zm-73.946 0V45.027H10v43.135zm67.784-65.73h-8.216v-8.216H28.487v28.757h51.35zM16.162 38.865h-2.054v2.054h2.054zM65.46 36.81H32.595v2.054H65.46zm0-6.162H32.595v2.054H65.46zm0-6.163H32.595v2.055H65.46zm-22.595-6.162h-10.27v2.054h10.27zm36.973-2.054h-2.054v2.054h2.054zm-2.054-2.054H75.73v2.054h2.054zm-6.162-6.162h-2.054v2.054h2.054zm-45.19 34.919v-30.81H65.46V8.053H22.324v34.919zm45.19-32.865v2.054h-4.109V8.054h2.055V6H20.27v30.81h-4.108v2.055h4.108v4.108h-6.162v-2.054h-2.054v4.108h71.892v-2.054h-2.054V18.324h-2.054v2.054h-6.162v-6.162h2.054v-2.054h-2.054v-2.054z"/></g><defs><clipPath id="a"><path fill="#fff" d="M10 6h76v84.216H10z"/></clipPath></defs></svg>